<?xml version="1.0" encoding="utf-8"?>
<!-- Generator: Adobe Illustrator 27.9.2, SVG Export Plug-In . SVG Version: 6.00 Build 0)  -->
<svg version="1.1" id="Layer_1" xmlns="http://www.w3.org/2000/svg" xmlns:xlink="http://www.w3.org/1999/xlink" x="0px" y="0px"
	 viewBox="0 0 84.7 32" style="enable-background:new 0 0 84.7 32;" xml:space="preserve">
<style type="text/css">
	.st0{fill:#FFFFFF;}
	.st1{fill:#0C73BA;}
	.st2{fill-rule:evenodd;clip-rule:evenodd;fill:#00B5F1;}
</style>
<g>
	<g>
		<path class="st0" d="M29.4,17.3c0,0.2,0,0.4,0,0.7h-8.6c0.1,0.9,0.5,1.5,1.1,2s1.3,0.7,2.2,0.7c0.4,0,0.8-0.1,1.2-0.2
			c0.4-0.1,0.7-0.3,1-0.5s0.5-0.5,0.7-0.8h2.3c-0.4,1.1-1.1,2-2,2.6s-2,1-3.1,1c-1.6,0-2.9-0.5-3.9-1.6s-1.6-2.4-1.6-4
			s0.5-2.9,1.6-4c1-1.1,2.3-1.6,3.9-1.6c1.1,0,2,0.3,2.8,0.8s1.5,1.2,1.9,2C29.2,15.3,29.4,16.2,29.4,17.3z M24,13.6
			c-0.8,0-1.5,0.2-2.1,0.7s-0.9,1.1-1.1,1.9h6.4c-0.1-0.5-0.3-1-0.6-1.4c-0.3-0.4-0.7-0.7-1.1-0.9C25,13.7,24.5,13.6,24,13.6z"/>
		<path class="st0" d="M39.2,11.9h1.4v9.2c0,1.1-0.2,2.1-0.6,2.9c-0.4,0.8-1,1.4-1.8,1.9c-0.8,0.4-1.7,0.7-2.8,0.7
			c-1.3,0-2.5-0.3-3.4-1c-0.9-0.7-1.5-1.6-1.8-2.8h2.2c0.2,0.6,0.6,1,1.1,1.3c0.6,0.3,1.2,0.5,1.9,0.5c0.9,0,1.7-0.3,2.3-0.9
			s0.9-1.4,0.9-2.4V21c-1,0.8-2.2,1.3-3.5,1.3c-1.5,0-2.7-0.5-3.7-1.5s-1.5-2.3-1.5-3.7c0-1.5,0.5-2.7,1.5-3.8c1-1,2.3-1.5,3.7-1.5
			c1.6,0,2.8,0.5,3.9,1.6L39.2,11.9z M35.2,20.2c0.5,0,0.9-0.1,1.3-0.2c0.4-0.2,0.8-0.4,1-0.7c0.3-0.3,0.5-0.6,0.7-1
			s0.2-0.8,0.2-1.3c0-0.9-0.3-1.7-0.9-2.3c-0.6-0.6-1.4-0.9-2.3-0.9c-0.9,0-1.7,0.3-2.3,0.9C32.3,15.3,32,16,32,17
			c0,0.9,0.3,1.7,0.9,2.3C33.5,19.9,34.3,20.2,35.2,20.2z"/>
		<path class="st0" d="M51.4,11.9h1.7v10.6h-1.8l-0.2-1.3c-1,1-2.3,1.6-3.8,1.6c-1.6,0-2.9-0.5-4-1.6s-1.6-2.4-1.6-4s0.5-2.9,1.6-4
			s2.4-1.6,4-1.6s2.8,0.5,3.9,1.6L51.4,11.9z M45,19.7c0.7,0.7,1.5,1,2.5,1s1.8-0.3,2.5-1c0.6-0.7,1-1.5,1-2.5s-0.3-1.8-1-2.5
			c-0.6-0.7-1.5-1-2.5-1c-0.7,0-1.2,0.2-1.8,0.5c-0.5,0.3-0.9,0.7-1.2,1.2C44.1,16,44,16.6,44,17.2C44,18.2,44.3,19.1,45,19.7z"/>
		<path class="st0" d="M60.7,11.7c1.2,0,2.2,0.4,2.9,1.2s1.1,1.9,1.1,3.2v6.4h-2.2v-5.9c0-1-0.2-1.7-0.6-2.2c-0.4-0.5-1-0.8-1.8-0.8
			s-1.5,0.3-2,0.9c-0.5,0.6-0.8,1.4-0.8,2.3v5.7H55V11.9h1.5l0.4,1.5c0.4-0.5,0.9-1,1.6-1.3C59.2,11.9,59.9,11.7,60.7,11.7z"/>
		<path class="st0" d="M76.5,17.3c0,0.2,0,0.4,0,0.7h-8.6c0.1,0.9,0.5,1.5,1.1,2s1.3,0.7,2.2,0.7c0.4,0,0.8-0.1,1.2-0.2
			c0.4-0.1,0.7-0.3,1-0.5s0.5-0.5,0.7-0.8h2.3c-0.4,1.1-1.1,2-2,2.6s-2,1-3.1,1c-1.6,0-2.9-0.5-3.9-1.6s-1.6-2.4-1.6-4
			s0.5-2.9,1.6-4c1-1.1,2.3-1.6,3.9-1.6c1.1,0,2,0.3,2.8,0.8s1.5,1.2,1.9,2C76.3,15.3,76.5,16.2,76.5,17.3z M71.1,13.6
			c-0.8,0-1.5,0.2-2.1,0.7s-0.9,1.1-1.1,1.9h6.4c-0.1-0.5-0.3-1-0.6-1.4c-0.3-0.4-0.7-0.7-1.1-0.9C72.2,13.7,71.7,13.6,71.1,13.6z"
			/>
		<path class="st0" d="M82.3,20.6h1.2v2h-1.6c-0.8,0-1.4-0.2-2-0.5s-1-0.7-1.3-1.3c-0.3-0.6-0.5-1.2-0.5-2v-5h-1.9v-0.4l3.7-3.9h0.4
			V12h3.1v1.9h-3.1v4.8c0,0.6,0.2,1.1,0.5,1.5C81.1,20.4,81.6,20.6,82.3,20.6z"/>
	</g>
</g>
<g>
	<path class="st0" d="M84.6,9.2c-0.1-0.1-0.1-0.2-0.2-0.3s-0.2-0.2-0.3-0.2c-0.1-0.1-0.3-0.1-0.4-0.1s-0.3,0-0.4,0.1
		S83.1,8.8,83,8.9c-0.1,0.1-0.2,0.2-0.2,0.3c-0.1,0.1-0.1,0.3-0.1,0.4c0,0.1,0,0.3,0.1,0.4c0.1,0.1,0.1,0.2,0.2,0.3s0.2,0.2,0.3,0.2
		c0.1,0.1,0.3,0.1,0.4,0.1s0.3,0,0.4-0.1s0.2-0.1,0.3-0.2c0.1-0.1,0.2-0.2,0.2-0.3c0.1-0.1,0.1-0.3,0.1-0.4S84.7,9.4,84.6,9.2z
		 M83.7,10.5c-0.5,0-0.8-0.4-0.8-0.8c0-0.5,0.4-0.8,0.8-0.8s0.8,0.4,0.8,0.8S84.1,10.5,83.7,10.5z"/>
	<path class="st0" d="M84,9.8c0-0.1-0.1-0.1-0.1-0.1c0.1-0.1,0.2-0.1,0.2-0.3c0-0.1,0-0.2-0.1-0.2c-0.1-0.1-0.2-0.1-0.3-0.1
		c-0.1,0-0.2,0-0.3,0l0,0v1h0.2V9.7h0.2C83.9,9.7,83.9,9.7,84,9.8c0,0.1,0.1,0.2,0.1,0.3l0,0h0.2l0,0C84.1,10,84,9.9,84,9.8z
		 M83.6,9.6h-0.2V9.2h0.1c0.2,0,0.3,0.1,0.3,0.2C83.9,9.5,83.8,9.6,83.6,9.6z"/>
</g>
<path class="st0" d="M9.2,14.9L9.2,14.9L7.3,20c-0.4,1-0.7,1.9-1.1,2.9C6.2,23,6,23,6,22.9L0,7c0-0.2,0.1-0.4,0.3-0.4h6.5
	c0.1,0,0.2,0.1,0.3,0.2L9.2,14.9z"/>
<path class="st0" d="M12.5,26.6c0,0.1,0,0.2-0.1,0.2h-5l0,0l-0.3-0.7V26c0.1-0.2,0.2-0.4,0.3-0.6c0.7-1.4,1.4-2.8,2.1-4.1v-0.1
	l0.7-1.4c0.1-0.1,0.2-0.1,0.3,0l0.3,0.9L12.5,26.6z"/>
<path class="st1" d="M22.3,0.3l-8.9,26.2c-0.1,0.2-0.2,0.3-0.4,0.3H7.4l0,0l3.4-6.1L22.3,0.3z"/>
<path class="st2" d="M13.4,12.4l-3.2,6.2L9,20.9c-0.7,1.4-1.4,2.8-2.1,4.2c0,0.1-0.1,0.1-0.1,0.2c-1,2.1-2.1,4.1-3.2,6.2
	c0,0.1-0.1,0.2-0.2,0.2c0.2-0.5,0.4-1.1,0.6-1.6c0.8-2,1.5-4,2.3-6c0.5-1.3,1-2.5,1.4-3.8l1.7-4.4l0.5-1.4c0.2-0.6,0.5-1.3,0.7-1.9
	c0.1-0.2,0.1-0.3,0.4-0.3c0.7,0,1.4,0,2.1,0C13.5,12.2,13.6,12.2,13.4,12.4z"/>
<path class="st2" d="M13.4,12.4l-3.2,6.2L9,20.9c-0.7,1.4-1.4,2.8-2.1,4.2c0,0.1-0.1,0.1-0.1,0.2c-1,2.1-2.1,4.1-3.2,6.2
	c0,0.1-0.1,0.2-0.2,0.2c0.2-0.5,0.4-1.1,0.6-1.6c0.8-2,1.5-4,2.3-6c0.5-1.3,1-2.5,1.4-3.8l1.7-4.4l0.5-1.4c0.2-0.6,0.5-1.3,0.7-1.9
	c0.1-0.2,0.1-0.3,0.4-0.3c0.7,0,1.4,0,2.1,0C13.5,12.2,13.6,12.2,13.4,12.4z"/>
</svg>
